PathFileType        4      (X/Y/Z)      C:\Users\pc\Desktop\IMUTRC\Sujet_03\Sujet_03_Tpose.trc         
DataRate	CameraRate	NumFrames	NumMarkers	Units	OrigDataRate	OrigDataStartFrame	OrigNumFrames
60.0	60.0	4	64	mm	60.0	62	123
Frame#	Time	pHipOrigin			pRightASI			pLeftASI			pRightCSI			pLeftCSI			pRightIschialTub			pLeftIschialTub			pSacrum			pL5SpinalProcess			pL3SpinalProcess			pT12SpinalProcess			pIJ			pT4SpinalProcess			pT8SpinalProcess			pPX			pC7SpinalProcess			pTopOfHead			pRightAuricularis			pLeftAuricularis			pBackOfHead			pRightAcromion			pLeftAcromion			pRightArmLatEpicondyle			pRightArmMedEpicondyle			pLeftArmLatEpicondyle			pLeftArmMedEpicondyle			pRightUlnarStyloid			pRightRadialStyloid			pRightOlecranon			pLeftUlnarStyloid			pLeftRadialStyloid			pLeftOlecranon			pRightTopOfHand			pRightPinky			pRightBallHand			pLeftTopOfHand			pLeftPinky			pLeftBallHand			pRightGreaterTrochanter			pRightKneeLatEpicondyle			pRightKneeMedEpicondyle			pRightPatella			pLeftGreaterTrochanter			pLeftKneeLatEpicondyle			pLeftKneeMedEpicondyle			pLeftPatella			pRightTibialTub			pRightLatMalleolus			pRightMedMalleolus			pLeftTibialTub			pLeftLatMalleolus			pLeftMedMalleolus			pRightHeelFoot			pRightFirstMetatarsal			pRightFifthMetatarsal			pRightPivotFoot			pRightHeelCenter			pRightToe			pLeftHeelFoot			pLeftFirstMetatarsal			pLeftFifthMetatarsal			pLeftPivotFoot			pLeftHeelCenter			pLeftToe			
		X1	Y1	Z1	X2	Y2	Z2	X3	Y3	Z3	X4	Y4	Z4	X5	Y5	Z5	X6	Y6	Z6	X7	Y7	Z7	X8	Y8	Z8	X9	Y9	Z9	X10	Y10	Z10	X11	Y11	Z11	X12	Y12	Z12	X13	Y13	Z13	X14	Y14	Z14	X15	Y15	Z15	X16	Y16	Z16	X17	Y17	Z17	X18	Y18	Z18	X19	Y19	Z19	X20	Y20	Z20	X21	Y21	Z21	X22	Y22	Z22	X23	Y23	Z23	X24	Y24	Z24	X25	Y25	Z25	X26	Y26	Z26	X27	Y27	Z27	X28	Y28	Z28	X29	Y29	Z29	X30	Y30	Z30	X31	Y31	Z31	X32	Y32	Z32	X33	Y33	Z33	X34	Y34	Z34	X35	Y35	Z35	X36	Y36	Z36	X37	Y37	Z37	X38	Y38	Z38	X39	Y39	Z39	X40	Y40	Z40	X41	Y41	Z41	X42	Y42	Z42	X43	Y43	Z43	X44	Y44	Z44	X45	Y45	Z45	X46	Y46	Z46	X47	Y47	Z47	X48	Y48	Z48	X49	Y49	Z49	X50	Y50	Z50	X51	Y51	Z51	X52	Y52	Z52	X53	Y53	Z53	X54	Y54	Z54	X55	Y55	Z55	X56	Y56	Z56	X57	Y57	Z57	X58	Y58	Z58	X59	Y59	Z59	X60	Y60	Z60	X61	Y61	Z61	X62	Y62	Z62	X63	Y63	Z63	X64	Y64	Z64	
62	1.017	-383.78178	985.0743	-766.2453199999999	-301.07612	1083.4843	-635.5096199999999	-323.54363	1083.02578	-909.0745099999999	-345.60994	1153.12212	-656.0284199999999	-364.18003	1152.72092	-881.7925299999999	-437.71528	929.53599	-704.8608699999999	-447.00032	929.36404	-817.7715799999999	-450.66848	1009.14664	-760.8003899999999	-411.52228	1100.73614	-764.2966099999999	-395.41675	1216.05408	-764.6978199999999	-391.86321	1322.31624	-763.7234599999999	-217.22416	1535.24177	-772.4353499999999	-377.07592	1523.32023	-761.3162299999999	-389.1694	1428.63572	-762.2905799999999	-228.34328	1405.30848	-774.1547999999999	-368.42134	1579.03049	-759.2528799999999	-278.15009	1833.56677	-763.1503099999999	-272.30395	1729.08137	-695.0026799999999	-303.42604	1735.2714	-835.8831499999999	-342.97345	1737.22012	-753.0628499999999	-340.85279	1556.96419	-547.9894899999999	-380.91603	1579.37438	-969.5419199999999	-273.10636	1485.83617	-305.3747499999999	-215.90591	1476.66576	-323.1424299999999	-406.19198	1493.97491	-1223.10384	-345.95383	1487.26905	-1224.25014	-143.45965	1437.06103	-81.61667999999992	-175.67072	1475.51945	-62.12954999999991	-232.75655	1463.08208	-329.50439999999986	-388.99746	1438.4366	-1475.74871	-431.92645	1470.7623	-1478.67178	-356.38518	1475.63408	-1215.65288	-120.18973	1440.78652	135.0343300000001	-100.81723	1421.52865	38.802310000000084	-126.83828	1449.32646	-34.618309999999916	-364.18003	1463.76986	-1683.00005	-344.29169	1440.21336	-1587.7997	-377.07592	1456.49085	-1513.63398	-362.40326	951.48767	-602.7827099999998	-398.51176	541.22631	-630.92442	-413.58563	541.68483	-709.44608	-362.5752	541.34094	-681.24706	-402.17993	950.7425700000001	-930.0518299999999	-435.30804	541.34094	-888.44108	-424.30355	542.25798	-809.17432	-385.10003	540.76779	-852.33257	-350.71098	500.64724000000007	-683.76892	-435.5373	89.75542000000004	-635.33768	-448.20394	90.09931000000005	-700.96345	-372.26145	501.90817000000004	-853.82277	-459.89621	89.12495000000006	-871.4185	-450.61117	89.69810000000004	-805.16226	-477.66389	4.038423696674052E-14	-659.52464	-320.16204	6.247340000000045	-730.65266	-304.68697	7.73754000000004	-650.46886	-289.89968	7.909480000000043	-696.09166	-438.23111	2.579180000000041	-667.20486	-207.99643	11.233760000000045	-712.02526	-492.62312	5.092688509505372E-14	-831.69915	-320.16204	4.871780000000051	-820.40807	-333.63109	4.585210000000055	-900.93576	-303.88456	5.387620000000053	-863.39439	-452.96109	2.0060300000000515	-838.3477	-221.52279	7.622910000000053	-877.20732	
63	1.033	-383.78178	985.0743	-766.2453199999999	-300.96149	1083.4843	-635.5669399999999	-323.65826	1083.02578	-909.1318199999998	-345.55263	1153.12212	-656.0284199999999	-364.29466	1152.72092	-881.8498399999999	-437.65796	929.5933	-704.8608699999999	-447.05763	929.36404	-817.7715799999999	-450.66848	1009.14664	-760.7430699999999	-411.52228	1100.79345	-764.2966099999999	-395.41675	1216.1114	-764.6978199999999	-391.8059	1322.37356	-763.7807699999998	-217.05221	1535.12714	-772.5499799999999	-376.90398	1523.32023	-761.3735399999999	-388.99746	1428.63572	-762.2905799999999	-228.22865	1405.19385	-774.2694299999999	-368.13477	1579.03049	-759.2528799999999	-277.8062	1833.56677	-763.2076199999999	-271.96006	1729.02406	-695.1173099999999	-303.13947	1735.21409	-835.9404599999999	-342.68687	1737.22012	-753.0628499999999	-340.56621	1556.96419	-548.0468099999999	-380.68677	1579.37438	-969.5992299999999	-272.81979	1485.9508	-305.3747499999999	-215.61934	1476.72307	-323.1997399999999	-406.07735	1493.97491	-1223.16115	-345.8392	1487.21173	-1224.30745	-143.17307	1437.11835	-81.67398999999992	-175.38415	1475.63408	-62.18685999999991	-232.46997	1463.1394	-329.56171999999987	-388.94014	1438.4366	-1475.80603	-431.86914	1470.7623	-1478.7291	-356.27055	1475.57677	-1215.71019	-119.90315	1440.95846	134.9770200000001	-100.53065	1421.64328	38.802310000000084	-126.5517	1449.44109	-34.67561999999992	-364.12271	1463.71255	-1683.00005	-344.23438	1440.09873	-1587.85701	-376.96129	1456.43353	-1513.63398	-362.34594	951.48767	-602.7827099999998	-398.51176	541.22631	-630.92442	-413.58563	541.68483	-709.44608	-362.5752	541.34094	-681.24706	-402.29456	950.7425700000001	-930.0518299999999	-435.36536	541.39826	-888.44108	-424.36086	542.3153	-809.23163	-385.10003	540.82511	-852.33257	-350.71098	500.64724000000007	-683.76892	-435.5373	89.75542000000004	-635.33768	-448.20394	90.09931000000005	-700.96345	-372.26145	501.90817000000004	-853.82277	-459.89621	89.12495000000006	-871.4185	-450.61117	89.75542000000004	-805.16226	-477.66389	0.05732000000004039	-659.52464	-320.21936	6.247340000000045	-730.65266	-304.68697	7.73754000000004	-650.46886	-289.89968	7.909480000000043	-696.09166	-438.23111	2.579180000000041	-667.20486	-207.99643	11.291070000000044	-712.02526	-492.62312	5.092688509505372E-14	-831.69915	-320.16204	4.871780000000051	-820.40807	-333.6884	4.585210000000055	-900.93576	-303.88456	5.387620000000053	-863.39439	-452.96109	2.0060300000000515	-838.3477	-221.52279	7.622910000000053	-877.20732	
64	1.05	-383.78178	985.0743	-766.2453199999999	-300.90418	1083.4843	-635.6242499999998	-323.71558	1083.02578	-909.1891399999998	-345.438	1153.12212	-656.0857399999999	-364.29466	1152.72092	-881.8498399999999	-437.65796	929.5933	-704.8608699999999	-447.05763	929.42136	-817.7142699999999	-450.66848	1009.14664	-760.7430699999999	-411.46497	1100.79345	-764.2966099999999	-395.35943	1216.1114	-764.6978199999999	-391.69127	1322.37356	-763.7807699999998	-216.82295	1535.06982	-772.6646099999999	-376.67471	1523.32023	-761.3735399999999	-388.88283	1428.69303	-762.3478999999999	-228.11402	1405.13653	-774.3267499999998	-367.90551	1579.03049	-759.3101999999999	-277.46231	1833.50945	-763.2649399999999	-271.67349	1728.96674	-695.1746199999999	-302.85289	1735.21409	-835.9977799999999	-342.34298	1737.1628	-753.1774799999998	-340.33695	1556.96419	-548.1041199999999	-380.51483	1579.37438	-969.6565499999999	-272.53321	1486.00811	-305.48937999999987	-215.33276	1476.78039	-323.3143699999999	-405.96272	1493.97491	-1223.16115	-345.78189	1487.15442	-1224.36477	-142.8865	1437.23298	-81.73130999999991	-175.09757	1475.80603	-62.24417999999991	-232.24071	1463.19671	-329.6190299999999	-388.88283	1438.37928	-1475.86334	-431.81182	1470.7623	-1478.7291	-356.21323	1475.57677	-1215.76751	-119.61657	1441.13041	134.9197000000001	-100.24408	1421.75791	38.74499000000009	-126.26512	1449.55572	-34.732939999999914	-364.0654	1463.65523	-1683.05736	-344.23438	1440.04142	-1587.91433	-376.90398	1456.43353	-1513.6913	-362.28863	951.48767	-602.8400299999998	-398.45445	541.22631	-630.92442	-413.58563	541.68483	-709.44608	-362.5752	541.34094	-681.30437	-402.35187	950.7425700000001	-930.0518299999999	-435.42267	541.39826	-888.44108	-424.36086	542.3153	-809.23163	-385.15735	540.82511	-852.33257	-350.71098	500.70455000000004	-683.76892	-435.5373	89.75542000000004	-635.33768	-448.20394	90.09931000000005	-700.96345	-372.31877	501.90817000000004	-853.82277	-459.89621	89.12495000000006	-871.4185	-450.61117	89.75542000000004	-805.16226	-477.66389	0.05732000000004039	-659.52464	-320.21936	6.247340000000045	-730.65266	-304.62966	7.79485000000004	-650.46886	-289.89968	7.909480000000043	-696.09166	-438.23111	2.579180000000041	-667.20486	-207.99643	11.291070000000044	-712.02526	-492.62312	5.092688509505372E-14	-831.69915	-320.16204	4.871780000000051	-820.40807	-333.6884	4.585210000000055	-900.93576	-303.88456	5.387620000000053	-863.39439	-452.96109	2.0060300000000515	-838.3477	-221.52279	7.622910000000053	-877.20732	
65	1.067	-383.78178	985.0743	-766.2453199999999	-300.78955	1083.4843	-635.6815699999999	-323.77289	1083.02578	-909.1891399999998	-345.38068	1153.12212	-656.0857399999999	-364.35197	1152.72092	-881.8498399999999	-437.65796	929.5933	-704.8035599999998	-447.11495	929.42136	-817.7142699999999	-450.66848	1009.20395	-760.6857599999998	-411.46497	1100.79345	-764.2392899999999	-395.30212	1216.1114	-764.6978199999999	-391.57664	1322.37356	-763.7807699999998	-216.59369	1535.01251	-772.8365599999998	-376.44545	1523.37755	-761.4881699999999	-388.71088	1428.69303	-762.3478999999999	-227.94208	1405.07922	-774.4413799999999	-367.67625	1579.03049	-759.4248299999999	-277.17573	1833.50945	-763.3795699999998	-271.38691	1728.90943	-695.2892499999999	-302.56631	1735.21409	-836.1124099999998	-342.05641	1737.1628	-753.2347999999998	-340.05038	1557.0215	-548.1614399999999	-380.34288	1579.31707	-969.7711799999998	-272.30395	1486.06543	-305.5466999999999	-215.1035	1476.8377	-323.3716899999999	-405.84809	1493.97491	-1223.27578	-345.66726	1487.0971	-1224.4794	-142.65724	1437.40493	-81.78861999999991	-174.811	1475.92066	-62.358809999999906	-231.95413	1463.25403	-329.7336599999999	-388.82551	1438.37928	-1475.92066	-431.75451	1470.7623	-1478.84373	-356.0986	1475.51945	-1215.82482	-119.33	1441.30235	134.8623900000001	-100.01482	1421.92985	38.63036000000009	-125.97855	1449.72767	-34.790249999999915	-364.0654	1463.65523	-1683.11468	-344.17706	1440.04142	-1587.97164	-376.90398	1456.37622	-1513.80593	-362.23131	951.48767	-602.8400299999998	-398.45445	541.22631	-630.92442	-413.58563	541.68483	-709.44608	-362.5752	541.34094	-681.30437	-402.40919	950.7425700000001	-930.0518299999999	-435.42267	541.39826	-888.44108	-424.41818	542.3153	-809.23163	-385.21466	540.82511	-852.33257	-350.71098	500.70455000000004	-683.82624	-435.5373	89.75542000000004	-635.33768	-448.20394	90.09931000000005	-700.96345	-372.37608	501.90817000000004	-853.82277	-459.89621	89.12495000000006	-871.4185	-450.55385	89.75542000000004	-805.16226	-477.66389	0.05732000000004039	-659.52464	-320.21936	6.247340000000045	-730.65266	-304.62966	7.79485000000004	-650.46886	-289.89968	7.909480000000043	-696.09166	-438.23111	2.579180000000041	-667.20486	-207.99643	11.291070000000044	-712.02526	-492.62312	5.092688509505372E-14	-831.69915	-320.16204	4.871780000000051	-820.35076	-333.63109	4.585210000000055	-900.93576	-303.88456	5.387620000000053	-863.39439	-452.96109	2.0060300000000515	-838.3477	-221.52279	7.622910000000053	-877.20732	
